<svg width="21" height="21" viewBox="0 0 21 21" fill="none" xmlns="http://www.w3.org/2000/svg">
<g id="clarity:library-line" clip-path="url(#clip0_1218_1166)">
<g id="Vector">
<mask id="path-1-inside-1_1218_1166" fill="white">
<path d="M19.53 17.2842L15.5984 6.895C15.544 6.75174 15.4619 6.62059 15.3569 6.50905C15.2518 6.3975 15.1258 6.30775 14.986 6.24492C14.8463 6.18208 14.6955 6.14739 14.5423 6.14283C14.3892 6.13827 14.2366 6.16392 14.0934 6.21833L12.25 6.9125V5.20333C12.25 4.90629 12.132 4.62141 11.922 4.41137C11.712 4.20133 11.4271 4.08333 11.13 4.08333H8.1667V2.87C8.1667 2.57296 8.0487 2.28808 7.83866 2.07804C7.62862 1.868 7.34374 1.75 7.0467 1.75H2.9167C2.60728 1.75 2.31053 1.87292 2.09174 2.09171C1.87295 2.3105 1.75003 2.60725 1.75003 2.91667V18.6667C1.75003 18.8214 1.81149 18.9697 1.92088 19.0791C2.03028 19.1885 2.17865 19.25 2.33336 19.25H11.6667C11.8214 19.25 11.9698 19.1885 12.0792 19.0791C12.1886 18.9697 12.25 18.8214 12.25 18.6667V11.2408L15.1667 18.9467C15.1939 19.0183 15.2349 19.0839 15.2874 19.1396C15.34 19.1954 15.403 19.2403 15.4729 19.2717C15.5427 19.3031 15.6181 19.3205 15.6947 19.3228C15.7713 19.325 15.8476 19.3122 15.9192 19.285L19.1917 18.0367C19.2633 18.0095 19.3289 17.9684 19.3847 17.9159C19.4404 17.8634 19.4853 17.8004 19.5167 17.7305C19.5482 17.6606 19.5655 17.5852 19.5678 17.5087C19.5701 17.4321 19.5572 17.3558 19.53 17.2842ZM7.00003 5.15083V18.0833H2.9167V2.91667H7.00003V5.15083ZM11.0834 18.0833H8.1667V5.25H11.0834V18.0833ZM16.0475 17.9375L12.3259 8.12L14.5075 7.29167L18.235 17.1092L16.0475 17.9375Z"/>
</mask>
<path d="M19.53 17.2842L15.5984 6.895C15.544 6.75174 15.4619 6.62059 15.3569 6.50905C15.2518 6.3975 15.1258 6.30775 14.986 6.24492C14.8463 6.18208 14.6955 6.14739 14.5423 6.14283C14.3892 6.13827 14.2366 6.16392 14.0934 6.21833L12.25 6.9125V5.20333C12.25 4.90629 12.132 4.62141 11.922 4.41137C11.712 4.20133 11.4271 4.08333 11.13 4.08333H8.1667V2.87C8.1667 2.57296 8.0487 2.28808 7.83866 2.07804C7.62862 1.868 7.34374 1.75 7.0467 1.75H2.9167C2.60728 1.75 2.31053 1.87292 2.09174 2.09171C1.87295 2.3105 1.75003 2.60725 1.75003 2.91667V18.6667C1.75003 18.8214 1.81149 18.9697 1.92088 19.0791C2.03028 19.1885 2.17865 19.25 2.33336 19.25H11.6667C11.8214 19.25 11.9698 19.1885 12.0792 19.0791C12.1886 18.9697 12.25 18.8214 12.25 18.6667V11.2408L15.1667 18.9467C15.1939 19.0183 15.2349 19.0839 15.2874 19.1396C15.34 19.1954 15.403 19.2403 15.4729 19.2717C15.5427 19.3031 15.6181 19.3205 15.6947 19.3228C15.7713 19.325 15.8476 19.3122 15.9192 19.285L19.1917 18.0367C19.2633 18.0095 19.3289 17.9684 19.3847 17.9159C19.4404 17.8634 19.4853 17.8004 19.5167 17.7305C19.5482 17.6606 19.5655 17.5852 19.5678 17.5087C19.5701 17.4321 19.5572 17.3558 19.53 17.2842ZM7.00003 5.15083V18.0833H2.9167V2.91667H7.00003V5.15083ZM11.0834 18.0833H8.1667V5.25H11.0834V18.0833ZM16.0475 17.9375L12.3259 8.12L14.5075 7.29167L18.235 17.1092L16.0475 17.9375Z" fill="black"/>
<path d="M19.53 17.2842L-448.104 194.255L-447.997 194.538L-447.889 194.82L19.53 17.2842ZM15.5984 6.895L483.232 -170.076L483.147 -170.3L483.062 -170.524L15.5984 6.895ZM14.0934 6.21833L190.304 474.139L190.967 473.889L191.63 473.638L14.0934 6.21833ZM12.25 6.9125H-487.75V729.482L188.461 474.833L12.25 6.9125ZM8.1667 4.08333H-491.833V504.083H8.1667V4.08333ZM8.1667 2.87H508.167H8.1667ZM2.9167 1.75V-498.25V1.75ZM1.75003 2.91667H-498.25H1.75003ZM1.75003 18.6667H-498.25H1.75003ZM12.25 11.2408L479.874 -165.755L-487.75 11.2408H12.25ZM15.1667 18.9467L-452.457 195.943L-452.377 196.155L-452.297 196.366L15.1667 18.9467ZM15.9192 19.285L193.455 486.704L193.79 486.577L194.125 486.45L15.9192 19.285ZM19.1917 18.0367L-158.228 -449.427L-158.621 -449.278L-159.014 -449.128L19.1917 18.0367ZM7.00003 18.0833V518.083H507V18.0833H7.00003ZM2.9167 18.0833H-497.083V518.083H2.9167V18.0833ZM2.9167 2.91667V-497.083H-497.083V2.91667H2.9167ZM7.00003 2.91667H507V-497.083H7.00003V2.91667ZM11.0834 18.0833V518.083H511.083V18.0833H11.0834ZM8.1667 18.0833H-491.833V518.083H8.1667V18.0833ZM8.1667 5.25V-494.75H-491.833V5.25H8.1667ZM11.0834 5.25H511.083V-494.75H11.0834V5.25ZM16.0475 17.9375L-451.486 195.173L-274.316 662.535L193.111 485.536L16.0475 17.9375ZM12.3259 8.12L-165.152 -459.322L-632.351 -281.936L-455.208 185.355L12.3259 8.12ZM14.5075 7.29167L481.949 -170.186L304.471 -637.628L-162.97 -460.15L14.5075 7.29167ZM18.235 17.1092L195.299 484.708L663.312 307.487L485.677 -160.369L18.235 17.1092ZM487.164 -159.687L483.232 -170.076L-452.035 183.866L-448.104 194.255L487.164 -159.687ZM483.062 -170.524C459.705 -232.065 424.453 -288.403 379.32 -336.319L-348.606 349.337C-393.53 301.644 -428.617 245.569 -451.865 184.314L483.062 -170.524ZM379.32 -336.319C334.187 -384.234 280.057 -422.789 220.021 -449.782L-190.049 462.272C-249.805 435.405 -303.683 397.029 -348.606 349.337L379.32 -336.319ZM220.021 -449.782C159.986 -476.775 95.2212 -491.676 29.4251 -493.636L-0.340443 505.921C-65.8302 503.971 -130.294 489.139 -190.049 462.272L220.021 -449.782ZM29.4251 -493.636C-36.3707 -495.595 -101.908 -484.573 -163.443 -461.201L191.63 473.638C130.381 496.901 65.149 507.871 -0.340443 505.921L29.4251 -493.636ZM-162.117 -461.702L-163.961 -461.008L188.461 474.833L190.304 474.139L-162.117 -461.702ZM512.25 6.9125V5.20333H-487.75V6.9125H512.25ZM512.25 5.20333C512.25 -127.702 459.454 -255.164 365.475 -349.142L-341.631 357.965C-435.19 264.407 -487.75 137.515 -487.75 5.20333H512.25ZM365.475 -349.142C271.497 -443.12 144.035 -495.917 11.13 -495.917V504.083C-121.181 504.083 -248.073 451.523 -341.631 357.965L365.475 -349.142ZM11.13 -495.917H8.1667V504.083H11.13V-495.917ZM508.167 4.08333V2.87H-491.833V4.08333H508.167ZM508.167 2.87C508.167 -130.035 455.37 -257.497 361.392 -351.475L-345.715 355.631C-439.273 262.073 -491.833 135.181 -491.833 2.87H508.167ZM361.392 -351.475C267.414 -445.454 139.952 -498.25 7.0467 -498.25V501.75C-125.265 501.75 -252.157 449.19 -345.715 355.631L361.392 -351.475ZM7.0467 -498.25H2.9167V501.75H7.0467V-498.25ZM2.9167 -498.25C-130.001 -498.25 -257.475 -445.449 -351.462 -351.462L355.645 355.645C262.096 449.195 135.215 501.75 2.9167 501.75V-498.25ZM-351.462 -351.462C-445.449 -257.475 -498.25 -130.001 -498.25 2.91667H501.75C501.75 135.215 449.195 262.096 355.645 355.645L-351.462 -351.462ZM-498.25 2.91667V18.6667H501.75V2.91667H-498.25ZM-498.25 18.6667C-498.25 151.429 -445.51 278.755 -351.632 372.633L355.474 -334.474C449.133 -240.815 501.75 -113.786 501.75 18.6667H-498.25ZM-351.632 372.633C-257.754 466.511 -130.429 519.25 2.33336 519.25V-480.75C134.786 -480.75 261.815 -428.134 355.474 -334.474L-351.632 372.633ZM2.33336 519.25H11.6667V-480.75H2.33336V519.25ZM11.6667 519.25C144.428 519.25 271.754 466.511 365.633 372.633L-341.474 -334.474C-247.814 -428.134 -120.785 -480.75 11.6667 -480.75V519.25ZM365.633 372.633C459.511 278.754 512.25 151.428 512.25 18.6667H-487.75C-487.75 -113.786 -435.134 -240.814 -341.474 -334.474L365.633 372.633ZM512.25 18.6667V11.2408H-487.75V18.6667H512.25ZM-455.374 188.237L-452.457 195.943L482.791 -158.05L479.874 -165.755L-455.374 188.237ZM-452.297 196.366C-428.968 257.833 -393.758 314.105 -348.676 361.967L379.251 -323.688C424.228 -275.938 459.356 -219.796 482.63 -158.473L-452.297 196.366ZM-348.676 361.967C-303.595 409.827 -249.528 448.337 -189.562 475.299L220.508 -436.755C280.334 -409.857 334.275 -371.436 379.251 -323.688L-348.676 361.967ZM-189.562 475.299C-129.592 502.262 -64.9022 517.144 0.811925 519.101L30.5775 -480.456C96.1385 -478.503 160.678 -463.656 220.508 -436.755L-189.562 475.299ZM0.811925 519.101C66.5262 521.058 131.987 510.051 193.455 486.704L-161.617 -448.134C-100.292 -471.427 -34.9836 -482.408 30.5775 -480.456L0.811925 519.101ZM194.125 486.45L197.397 485.201L-159.014 -449.128L-162.286 -447.88L194.125 486.45ZM196.611 485.5C258.083 462.17 314.354 426.958 362.212 381.879L-323.443 -346.047C-275.696 -391.021 -219.556 -426.151 -158.228 -449.427L196.611 485.5ZM362.212 381.879C410.072 336.799 448.582 282.731 475.544 222.766L-436.51 -187.305C-409.612 -247.131 -371.191 -301.072 -323.443 -346.047L362.212 381.879ZM475.544 222.766C502.503 162.805 517.389 98.1152 519.346 32.3914L-480.211 2.62587C-478.258 -62.9448 -463.407 -127.483 -436.51 -187.305L475.544 222.766ZM519.346 32.3914C521.303 -33.3327 510.293 -98.7931 486.949 -160.252L-447.889 194.82C-471.178 133.505 -482.163 68.1968 -480.211 2.62587L519.346 32.3914ZM-493 5.15083V18.0833H507V5.15083H-493ZM7.00003 -481.917H2.9167V518.083H7.00003V-481.917ZM502.917 18.0833V2.91667H-497.083V18.0833H502.917ZM2.9167 502.917H7.00003V-497.083H2.9167V502.917ZM-493 2.91667V5.15083H507V2.91667H-493ZM11.0834 -481.917H8.1667V518.083H11.0834V-481.917ZM508.167 18.0833V5.25H-491.833V18.0833H508.167ZM8.1667 505.25H11.0834V-494.75H8.1667V505.25ZM-488.917 5.25V18.0833H511.083V5.25H-488.917ZM483.581 -159.298L479.86 -169.115L-455.208 185.355L-451.486 195.173L483.581 -159.298ZM189.804 475.562L191.985 474.733L-162.97 -460.15L-165.152 -459.322L189.804 475.562ZM-452.934 184.769L-449.207 194.587L485.677 -160.369L481.949 -170.186L-452.934 184.769ZM-158.829 -450.489L-161.016 -449.661L193.111 485.536L195.299 484.708L-158.829 -450.489Z" fill="black" mask="url(#path-1-inside-1_1218_1166)"/>
</g>
</g>
<defs>
<clipPath id="clip0_1218_1166">
<rect width="21" height="21" fill="white"/>
</clipPath>
</defs>
</svg>
