<svg width="18" height="18" viewBox="0 0 18 18" fill="none" xmlns="http://www.w3.org/2000/svg">
<g id="Frame 88">
<path id="Vector" d="M6.99992 10.9998C7.27421 10.9998 7.53288 10.9478 7.77593 10.8436C8.01897 10.7394 8.23077 10.5971 8.41132 10.4165C8.59187 10.236 8.73596 10.0224 8.84359 9.77593C8.95123 9.52941 9.00331 9.27074 8.99984 8.99992C8.99984 8.72215 8.94776 8.46348 8.84359 8.22391C8.73943 7.98433 8.59708 7.77254 8.41653 7.58852C8.23598 7.4045 8.02245 7.26041 7.77593 7.15624C7.52941 7.05208 7.27074 7 6.99992 7C6.72215 7 6.46348 7.05208 6.22391 7.15624C5.98433 7.26041 5.77254 7.40276 5.58852 7.58331C5.4045 7.76386 5.26041 7.97565 5.15624 8.2187C5.05208 8.46175 5 8.72215 5 8.99992C5 9.27421 5.05208 9.53288 5.15624 9.77593C5.26041 10.019 5.40276 10.2308 5.58331 10.4113C5.76386 10.5919 5.97565 10.736 6.2187 10.8436C6.46175 10.9512 6.72215 11.0033 6.99992 10.9998Z" fill="#797979"/>
</g>
</svg>
