<svg width="27" height="27" viewBox="0 0 27 27" fill="none" xmlns="http://www.w3.org/2000/svg">
<g id="edit / search_small">
<path id="coolicon" d="M19.7742 21.3749L14.4113 16.0131C11.9856 17.6133 8.74244 17.1183 6.90455 14.8674C5.06665 12.6164 5.23028 9.33979 7.2833 7.28314C9.33959 5.22933 12.6166 5.06499 14.868 6.90276C17.1195 8.74053 17.6148 11.9841 16.0144 14.41L21.3751 19.774L19.7742 21.3749ZM11.2883 7.89063C9.66746 7.88961 8.27159 9.03366 7.95435 10.6232C7.63711 12.2127 8.48684 13.8049 9.98389 14.4262C11.4809 15.0474 13.2084 14.5247 14.1098 13.1776C15.0112 11.8305 14.8355 10.0343 13.6902 8.88739C13.0548 8.24765 12.1899 7.88872 11.2883 7.89063Z" fill="#2D2D2D"/>
</g>
</svg>
